<?xml version="1.0" encoding="utf-8"?>
<!-- Generator: Adobe Illustrator 25.2.0, SVG Export Plug-In . SVG Version: 6.00 Build 0)  -->
<svg version="1.1" id="Layer_1" xmlns="http://www.w3.org/2000/svg" xmlns:xlink="http://www.w3.org/1999/xlink" x="0px" y="0px"
	 viewBox="0 0 2364 1080" style="enable-background:new 0 0 2364 1080;" xml:space="preserve">
<style type="text/css">
	.st0{fill:#5F2C2B;}
	.st1{font-family:'MyriadPro-Regular';}
	.st2{font-size:48px;}
	.st3{fill:#FFFFFF;}
	.st4{fill:none;}
	.st5{fill:none;stroke:#FFFFFF;stroke-width:5;stroke-miterlimit:10;}
	.st6{fill:#404040;stroke:#FFFFFF;stroke-width:2;stroke-miterlimit:10;}
	.st7{fill:#484759;}
	.st8{font-family:'FranklinGothic-MediumCond';}
	.st9{font-size:18.458px;}
	.st10{fill:#BFBFBF;}
	.st11{fill:#FCEE21;}
	.st12{font-size:20.7653px;}
	.st13{fill:#4D4D4D;}
	.st14{font-size:23.0725px;}
	.st15{fill:#0000FF;}
	.st16{fill:#808080;}
	.st17{fill:#C69C6D;}
	.st18{fill:#D46E95;stroke:#FFFFFF;stroke-miterlimit:10;}
	.st19{fill:#18496A;}
	.st20{fill:#E5332A;stroke:#FFFFFF;stroke-miterlimit:10;}
	.st21{fill:#F29554;stroke:#FFFFFF;stroke-miterlimit:10;}
	.st22{fill:#D39637;}
	.st23{fill:#F1C900;stroke:#FFFFFF;stroke-miterlimit:10;}
	.st24{fill:#B1D395;}
	.st25{fill:#D99B91;}
	.st26{fill:#DA9654;}
	.st27{fill:#A5B22C;stroke:#FFFFFF;stroke-miterlimit:10;}
	.st28{fill:none;stroke:#FFFFFF;stroke-miterlimit:10;}
	.st29{fill:#EE82B2;stroke:#FFFFFF;stroke-miterlimit:10;}
</style>
<g>
	<rect x="3.5" y="3.5" class="st0" width="2360" height="1079"/>
	<path d="M2363,4v1078H4V4H2363 M2364,3H3v1080h2361V3L2364,3z"/>
</g>
<text transform="matrix(1 0 0 1 35.6113 737.7964)"><tspan x="0" y="0" class="st1 st2">Pink: income grouped</tspan><tspan x="0" y="57.6" class="st1 st2">Blue: electric, fuel, hybrid, Gas</tspan><tspan x="0" y="115.2" class="st1 st2">Ochre: Education, climate concerned,</tspan><tspan x="0" y="172.8" class="st1 st2">home ownership.</tspan><tspan x="0" y="230.4" class="st1 st2"> </tspan></text>
<g>
	<g>
		<path class="st3" d="M69.49,67.3v17.26h17.28V67.3h5.11v40.91h-5.11V89.04H69.49v19.17h-5.11V67.3H69.49z"/>
		<path class="st3" d="M124.33,93.33c0,11.02-6.86,15.5-13.15,15.5c-7.15,0-12.74-5.5-12.74-15.12c0-10.09,5.96-15.46,13.16-15.46
			C119.08,78.24,124.33,84,124.33,93.33z M103.65,93.57c0,5.97,2.84,11.34,7.75,11.34c4.79,0,7.71-5.41,7.71-11.45
			c0-4.83-2-11.3-7.68-11.3C105.8,82.16,103.65,88.33,103.65,93.57z"/>
		<path class="st3" d="M132.79,78.86l3.6,14.73c0.77,3.24,1.49,6.35,2.01,9.37h0.17c0.6-2.98,1.49-6.23,2.4-9.3l4.37-14.8h4.23
			l4.16,14.49c0.95,3.42,1.76,6.53,2.39,9.61h0.16c0.48-3.01,1.21-6.08,2.07-9.52l3.77-14.58h5.08l-8.85,29.35h-4.54l-4.14-14.08
			c-0.96-3.17-1.67-6-2.31-9.42h-0.12c-0.67,3.53-1.48,6.47-2.4,9.51l-4.35,13.99h-4.6l-8.35-29.35H132.79z"/>
		<path class="st3" d="M183.33,102.95c1.44,0.91,3.95,1.92,6.38,1.92c3.52,0,5.3-1.83,5.3-4.34c0-2.46-1.33-3.87-4.95-5.48
			c-4.86-2.09-7.25-4.87-7.24-8.34c0-4.74,3.76-8.46,9.55-8.46c2.78,0,5.1,0.79,6.6,1.72l-1.3,3.78c-1.12-0.73-3-1.61-5.39-1.61
			c-2.96,0-4.54,1.82-4.54,3.94c0,2.29,1.43,3.38,5,5.02c4.56,1.98,7.2,4.57,7.21,8.86c0,5.41-4.04,8.81-10.34,8.81
			c-2.89,0-5.69-0.78-7.52-1.94L183.33,102.95z"/>
		<path class="st3" d="M230.2,93.33c0,11.02-6.86,15.5-13.15,15.5c-7.15,0-12.74-5.5-12.74-15.12c0-10.09,5.96-15.46,13.16-15.46
			C224.95,78.24,230.2,84,230.2,93.33z M209.52,93.57c0,5.97,2.85,11.34,7.75,11.34c4.79,0,7.71-5.41,7.71-11.45
			c0-4.83-2-11.3-7.68-11.3C211.67,82.16,209.52,88.33,209.52,93.57z"/>
		<path class="st3" d="M255.44,107.25c-1.29,0.66-3.97,1.52-7.35,1.52c-8.12,0-13.48-5.77-13.48-14.97c0-8.86,5.6-15.54,14.53-15.54
			c2.68,0,5.17,0.69,6.43,1.38l-1.11,4.01c-1.1-0.58-2.85-1.23-5.37-1.23c-6.09,0-9.29,5.19-9.28,11.19
			c0,6.82,3.85,10.98,9.23,10.98c2.47,0,4.22-0.61,5.59-1.23L255.44,107.25z"/>
		<path class="st3" d="M266.71,70.76c0.01,1.82-1.22,3.23-3.24,3.23c-1.81,0-3.06-1.41-3.06-3.23c-0.01-1.84,1.31-3.24,3.15-3.24
			C265.47,67.52,266.7,68.91,266.71,70.76z M261.01,108.21V78.86h5.11v29.35H261.01z"/>
		<path class="st3" d="M298.31,93.33c0,11.02-6.86,15.5-13.15,15.5c-7.15,0-12.74-5.5-12.74-15.12c0-10.09,5.96-15.46,13.16-15.46
			C293.06,78.24,298.31,84,298.31,93.33z M277.63,93.57c0,5.97,2.85,11.34,7.75,11.34c4.79,0,7.71-5.41,7.71-11.45
			c0-4.83-2-11.3-7.68-11.3C279.78,82.16,277.63,88.33,277.63,93.57z"/>
		<path class="st3" d="M327.64,65.44v35.36c0,2.42,0.12,5.48,0.24,7.41h-4.52l-0.28-4.66h-0.16c-1.43,2.92-4.53,5.27-8.82,5.27
			c-6.47,0-11.39-5.82-11.39-14.96c-0.03-9.99,5.54-15.62,11.89-15.62c3.81,0,6.54,1.78,7.81,4.16h0.12V65.44H327.64z M322.53,90.56
			c0-0.67-0.04-1.5-0.18-2.18c-0.66-3.27-3.22-6.01-6.72-6.01c-5.03,0-7.75,5.02-7.75,11.29c0,6.04,2.56,10.99,7.59,10.99
			c2.93,0,5.81-1.92,6.81-5.99c0.17-0.66,0.24-1.39,0.24-2.19V90.56z"/>
		<path class="st3" d="M338.88,94.33c0.08,7.75,4.35,10.41,9.12,10.41c3.28,0,5.42-0.63,7.15-1.38l0.89,3.68
			c-1.8,0.87-4.83,1.74-8.8,1.74c-8.42,0-13.31-5.93-13.31-14.79c0-9.08,4.88-15.73,12.64-15.73c8.5,0,10.98,7.78,10.98,13.55
			c0,1.13-0.06,1.93-0.16,2.54H338.88z M352.59,90.61c0.06-4.12-1.61-8.6-6.46-8.6c-4.74,0-6.82,4.79-7.19,8.6H352.59z"/>
		<path class="st3" d="M363.72,86.68c0-3.18-0.12-5.41-0.24-7.82h4.48l0.27,4.39h0.14c1.52-2.67,4.11-5,8.47-5
			c3.6,0,6.43,2.09,7.64,5.46h0.12c0.89-1.61,2.01-2.85,3.18-3.68c1.6-1.16,3.35-1.78,5.74-1.78c3.94,0,8.9,2.63,8.9,12.03v17.94
			h-5.04V91.07c0-5.13-1.63-8.6-5.69-8.6c-2.73,0-4.88,2.05-5.73,4.68c-0.23,0.77-0.37,1.72-0.37,2.67v18.39h-5.04V90.1
			c0-4.24-1.62-7.63-5.48-7.63c-2.91,0-5.18,2.35-5.97,5.16c-0.23,0.78-0.34,1.68-0.34,2.59v17.98h-5.04V86.68z"/>
		<path class="st3" d="M434.47,93.33c0,11.02-6.86,15.5-13.15,15.5c-7.15,0-12.74-5.5-12.74-15.12c0-10.09,5.96-15.46,13.16-15.46
			C429.22,78.24,434.47,84,434.47,93.33z M413.8,93.57c0,5.97,2.85,11.34,7.75,11.34c4.79,0,7.71-5.41,7.71-11.45
			c0-4.83-2-11.3-7.68-11.3C415.94,82.16,413.8,88.33,413.8,93.57z"/>
		<path class="st3" d="M463.89,78.86c-0.13,2.06-0.25,4.51-0.25,8.37v16.86c0,7.08-1.26,10.81-3.81,13.25
			c-2.55,2.45-6.26,3.4-9.83,3.4c-3.24,0-6.66-0.76-8.8-2.12l1.26-3.98c1.72,1.04,4.42,2.04,7.69,2.04c4.93,0,8.42-2.69,8.42-9.89
			v-3.18h-0.12c-1.42,2.62-4.3,4.53-8.21,4.53c-6.68,0-11.35-6.11-11.35-14.4c0-10.22,6-15.48,12.06-15.48
			c4.5,0,6.87,2.45,8.05,4.68h0.12l0.22-4.07H463.89z M458.53,89.97c0-0.84-0.07-1.62-0.28-2.31c-0.84-2.77-2.97-5.32-6.52-5.32
			c-4.58,0-7.68,4.38-7.68,11.11c0,6.28,2.78,10.68,7.64,10.68c2.75,0,5.38-1.66,6.46-5.11c0.28-0.88,0.38-1.88,0.38-2.78V89.97z"/>
		<path class="st3" d="M471.76,87.53c0-3.17-0.11-6.11-0.24-8.67h4.53l0.21,5.41h0.18c1.24-3.59,4.26-6.02,7.57-6.02
			c0.53,0,0.91,0.03,1.33,0.12v4.95c-0.46-0.09-0.93-0.12-1.56-0.12c-3.52,0-6.05,2.81-6.7,6.62c-0.13,0.76-0.2,1.64-0.2,2.55v15.86
			h-5.11V87.53z"/>
		<path class="st3" d="M505.05,108.21l-0.42-3.53h-0.16c-1.52,2.28-4.35,4.14-8.05,4.14c-5.33,0-8.37-3.94-8.37-8.42
			c0-7.18,6.18-10.88,16.11-10.85v-0.71c0-2.86-0.77-6.77-6.09-6.75c-2.45,0-4.95,0.75-6.81,1.99l-1.15-3.47
			c2.07-1.36,5.37-2.38,8.84-2.38c8.05,0,10.33,5.45,10.33,11.55v11.51c0,2.42,0.09,4.93,0.41,6.91H505.05z M504.26,93.16
			c-4.76-0.08-11.1,0.78-11.1,6.67c0,3.6,2.2,5.13,4.57,5.13c3.32,0,5.54-2.16,6.3-4.76c0.17-0.56,0.22-1.17,0.22-1.68V93.16z"/>
		<path class="st3" d="M517.29,88.3c0-3.97-0.12-6.88-0.24-9.44h4.59l0.28,4.62h0.12c1.98-3.45,5.13-5.23,9.16-5.23
			c6.51,0,11.27,5.81,11.27,14.95c0,10.68-5.88,15.63-12.07,15.63c-3.57,0-6.41-1.72-7.87-4.26h-0.12v15.55h-5.11V88.3z
			 M522.39,96.62c0,0.79,0.07,1.55,0.23,2.25c0.94,3.87,3.84,5.86,6.87,5.86c5.13,0,7.79-4.85,7.79-11.33
			c0-5.93-2.59-10.98-7.66-10.98c-3.18,0-6.15,2.6-6.94,6.21c-0.16,0.7-0.29,1.47-0.29,2.19V96.62z"/>
		<path class="st3" d="M548.75,65.44h5.11v17.56h0.12c0.81-1.36,2.01-2.58,3.43-3.41c1.41-0.85,3.08-1.35,5-1.35
			c3.89,0,9.22,2.57,9.22,11.89v18.08h-5.11V90.7c0-4.4-1.5-8.19-5.94-8.19c-3.09,0-5.48,2.18-6.41,5.13
			c-0.23,0.71-0.31,1.54-0.31,2.44v18.12h-5.11V65.44z"/>
		<path class="st3" d="M585.41,70.76c0.01,1.82-1.22,3.23-3.24,3.23c-1.81,0-3.06-1.41-3.06-3.23c-0.01-1.84,1.31-3.24,3.15-3.24
			C584.17,67.52,585.4,68.91,585.41,70.76z M579.71,108.21V78.86h5.11v29.35H579.71z"/>
		<path class="st3" d="M611.95,107.25c-1.29,0.66-3.97,1.52-7.35,1.52c-8.12,0-13.48-5.77-13.48-14.97c0-8.86,5.6-15.54,14.53-15.54
			c2.68,0,5.17,0.69,6.43,1.38l-1.11,4.01c-1.1-0.58-2.85-1.23-5.37-1.23c-6.09,0-9.29,5.19-9.28,11.19
			c0,6.82,3.85,10.98,9.23,10.98c2.47,0,4.22-0.61,5.59-1.23L611.95,107.25z"/>
		<path class="st3" d="M652.47,65.44v35.36c0,2.42,0.12,5.48,0.24,7.41h-4.52l-0.28-4.66h-0.16c-1.43,2.92-4.53,5.27-8.82,5.27
			c-6.47,0-11.39-5.82-11.39-14.96c-0.03-9.99,5.54-15.62,11.89-15.62c3.81,0,6.54,1.78,7.81,4.16h0.12V65.44H652.47z M647.36,90.56
			c0-0.67-0.04-1.5-0.18-2.18c-0.66-3.27-3.22-6.01-6.72-6.01c-5.03,0-7.75,5.02-7.75,11.29c0,6.04,2.56,10.99,7.59,10.99
			c2.94,0,5.81-1.92,6.81-5.99c0.17-0.66,0.24-1.39,0.24-2.19V90.56z"/>
		<path class="st3" d="M666.33,70.76c0.01,1.82-1.22,3.23-3.24,3.23c-1.81,0-3.06-1.41-3.06-3.23c-0.01-1.84,1.31-3.24,3.15-3.24
			C665.09,67.52,666.32,68.91,666.33,70.76z M660.63,108.21V78.86h5.11v29.35H660.63z"/>
		<path class="st3" d="M690.99,108.21V82.75H679.7v25.46h-5.11V82.75h-3.98v-3.89h3.98v-1.19c0-3.99,0.94-7.4,3.11-9.61
			c1.6-1.65,3.9-2.61,7-2.61c1.57,0,3.04,0.45,3.84,0.87l-1.04,3.91c-0.71-0.36-1.76-0.68-2.85-0.68c-3.83,0-4.95,3.26-4.95,7.87
			v1.45h11.31v-1.53c0-3.85,0.81-7.45,3.17-9.85c1.92-1.93,4.5-2.65,6.75-2.65c1.84,0,3.32,0.37,4.3,0.81l-0.73,3.97
			c-0.75-0.32-1.72-0.62-3.17-0.62c-4.17,0-5.23,3.87-5.23,8.18v1.67h6.58v3.89h-6.56v25.46H690.99z"/>
		<path class="st3" d="M709.97,94.33c0.08,7.75,4.35,10.41,9.12,10.41c3.28,0,5.42-0.63,7.15-1.38l0.89,3.68
			c-1.8,0.87-4.83,1.74-8.8,1.74c-8.42,0-13.31-5.93-13.31-14.79c0-9.08,4.88-15.73,12.64-15.73c8.5,0,10.98,7.78,10.98,13.55
			c0,1.13-0.06,1.93-0.16,2.54H709.97z M723.67,90.61c0.06-4.12-1.61-8.6-6.46-8.6c-4.74,0-6.82,4.79-7.19,8.6H723.67z"/>
		<path class="st3" d="M734.79,87.53c0-3.17-0.11-6.11-0.24-8.67h4.53l0.21,5.41h0.18c1.24-3.59,4.26-6.02,7.57-6.02
			c0.53,0,0.91,0.03,1.33,0.12v4.95c-0.46-0.09-0.93-0.12-1.56-0.12c-3.52,0-6.05,2.81-6.7,6.62c-0.13,0.76-0.2,1.64-0.2,2.55v15.86
			h-5.11V87.53z"/>
		<path class="st3" d="M756.29,94.33c0.08,7.75,4.35,10.41,9.12,10.41c3.28,0,5.42-0.63,7.15-1.38l0.89,3.68
			c-1.8,0.87-4.83,1.74-8.8,1.74c-8.42,0-13.31-5.93-13.31-14.79c0-9.08,4.88-15.73,12.64-15.73c8.5,0,10.98,7.78,10.98,13.55
			c0,1.13-0.06,1.93-0.16,2.54H756.29z M769.99,90.61c0.06-4.12-1.61-8.6-6.46-8.6c-4.74,0-6.82,4.79-7.19,8.6H769.99z"/>
		<path class="st3" d="M781.13,86.68c0-3.18-0.12-5.41-0.24-7.82h4.53l0.28,4.44h0.14c1.39-2.64,4.49-5.05,8.81-5.05
			c4.04,0,9.37,2.6,9.37,11.79v18.18h-5.11V90.69c0-4.37-1.45-8.2-5.98-8.2c-3.04,0-5.51,2.23-6.36,5.27
			c-0.2,0.67-0.33,1.6-0.33,2.52v17.93h-5.11V86.68z"/>
		<path class="st3" d="M831.04,107.25c-1.29,0.66-3.97,1.52-7.35,1.52c-8.12,0-13.48-5.77-13.48-14.97c0-8.86,5.6-15.54,14.53-15.54
			c2.68,0,5.17,0.69,6.43,1.38l-1.11,4.01c-1.1-0.58-2.85-1.23-5.37-1.23c-6.09,0-9.29,5.19-9.28,11.19
			c0,6.82,3.85,10.98,9.23,10.98c2.47,0,4.22-0.61,5.59-1.23L831.04,107.25z"/>
		<path class="st3" d="M839.69,94.33c0.08,7.75,4.35,10.41,9.12,10.41c3.28,0,5.42-0.63,7.15-1.38l0.89,3.68
			c-1.8,0.87-4.83,1.74-8.8,1.74c-8.42,0-13.31-5.93-13.31-14.79c0-9.08,4.88-15.73,12.64-15.73c8.5,0,10.98,7.78,10.98,13.55
			c0,1.13-0.06,1.93-0.16,2.54H839.69z M853.4,90.61c0.06-4.12-1.61-8.6-6.46-8.6c-4.74,0-6.82,4.79-7.19,8.6H853.4z"/>
		<path class="st3" d="M863.77,102.95c1.44,0.91,3.95,1.92,6.38,1.92c3.52,0,5.3-1.83,5.3-4.34c0-2.46-1.33-3.87-4.95-5.48
			c-4.86-2.09-7.25-4.87-7.24-8.34c0-4.74,3.76-8.46,9.55-8.46c2.78,0,5.1,0.79,6.6,1.72l-1.3,3.78c-1.12-0.73-3-1.61-5.39-1.61
			c-2.96,0-4.54,1.82-4.54,3.94c0,2.29,1.43,3.38,5,5.02c4.56,1.98,7.2,4.57,7.21,8.86c0,5.41-4.04,8.81-10.34,8.81
			c-2.89,0-5.69-0.78-7.52-1.94L863.77,102.95z"/>
		<path class="st3" d="M913.41,108.21l-0.42-3.53h-0.16c-1.52,2.28-4.35,4.14-8.05,4.14c-5.33,0-8.37-3.94-8.37-8.42
			c0-7.18,6.18-10.88,16.11-10.85v-0.71c0-2.86-0.77-6.77-6.09-6.75c-2.45,0-4.95,0.75-6.81,1.99l-1.15-3.47
			c2.07-1.36,5.37-2.38,8.84-2.38c8.05,0,10.33,5.45,10.33,11.55v11.51c0,2.42,0.09,4.93,0.41,6.91H913.41z M912.62,93.16
			c-4.76-0.08-11.1,0.78-11.1,6.67c0,3.6,2.2,5.13,4.57,5.13c3.32,0,5.54-2.16,6.3-4.76c0.17-0.56,0.22-1.17,0.22-1.68V93.16z"/>
		<path class="st3" d="M942.73,108.21V82.75h-11.29v25.46h-5.11V82.75h-3.98v-3.89h3.98v-1.19c0-3.99,0.94-7.4,3.11-9.61
			c1.6-1.65,3.9-2.61,7-2.61c1.57,0,3.04,0.45,3.84,0.87l-1.04,3.91c-0.71-0.36-1.76-0.68-2.85-0.68c-3.83,0-4.95,3.26-4.95,7.87
			v1.45h11.31v-1.53c0-3.85,0.81-7.45,3.17-9.85c1.92-1.93,4.5-2.65,6.75-2.65c1.84,0,3.32,0.37,4.3,0.81l-0.73,3.97
			c-0.75-0.32-1.72-0.62-3.17-0.62c-4.17,0-5.23,3.87-5.23,8.18v1.67h6.58v3.89h-6.56v25.46H942.73z"/>
		<path class="st3" d="M961.71,94.33c0.08,7.75,4.35,10.41,9.12,10.41c3.28,0,5.42-0.63,7.15-1.38l0.89,3.68
			c-1.8,0.87-4.83,1.74-8.8,1.74c-8.42,0-13.31-5.93-13.31-14.79c0-9.08,4.88-15.73,12.64-15.73c8.5,0,10.98,7.78,10.98,13.55
			c0,1.13-0.06,1.93-0.16,2.54H961.71z M975.42,90.61c0.06-4.12-1.61-8.6-6.46-8.6c-4.74,0-6.83,4.79-7.19,8.6H975.42z"/>
		<path class="st3" d="M1005.5,107.25c-1.29,0.66-3.97,1.52-7.35,1.52c-8.12,0-13.48-5.77-13.48-14.97c0-8.86,5.6-15.54,14.53-15.54
			c2.68,0,5.17,0.69,6.43,1.38l-1.11,4.01c-1.1-0.58-2.85-1.23-5.37-1.23c-6.1,0-9.29,5.19-9.29,11.19c0,6.82,3.85,10.98,9.23,10.98
			c2.47,0,4.22-0.61,5.59-1.23L1005.5,107.25z"/>
		<path class="st3" d="M1017.28,70.6v8.26h7.06v3.89h-7.06v16.31c0,3.71,1.15,5.46,3.74,5.46c1.19,0,2.08-0.14,2.73-0.33l0.23,3.92
			c-0.97,0.38-2.46,0.65-4.38,0.65c-2.27,0-4.19-0.72-5.41-2.11c-1.38-1.54-1.98-3.94-1.98-7.57V82.75h-4.26v-3.89h4.26v-6.89
			L1017.28,70.6z"/>
		<path class="st3" d="M1047.88,70.6v8.26h7.06v3.89h-7.06v16.31c0,3.71,1.15,5.46,3.74,5.46c1.19,0,2.08-0.14,2.73-0.33l0.23,3.92
			c-0.97,0.38-2.46,0.65-4.38,0.65c-2.27,0-4.19-0.72-5.41-2.11c-1.38-1.54-1.98-3.94-1.98-7.57V82.75h-4.26v-3.89h4.26v-6.89
			L1047.88,70.6z"/>
		<path class="st3" d="M1060.37,65.44h5.11v17.56h0.12c0.81-1.36,2.01-2.58,3.43-3.41c1.41-0.85,3.08-1.35,5-1.35
			c3.89,0,9.22,2.57,9.22,11.89v18.08h-5.12V90.7c0-4.4-1.5-8.19-5.94-8.19c-3.09,0-5.48,2.18-6.41,5.13
			c-0.23,0.71-0.31,1.54-0.31,2.44v18.12h-5.11V65.44z"/>
		<path class="st3" d="M1094.41,94.33c0.08,7.75,4.35,10.41,9.12,10.41c3.28,0,5.42-0.63,7.15-1.38l0.89,3.68
			c-1.8,0.87-4.83,1.74-8.8,1.74c-8.42,0-13.31-5.93-13.31-14.79c0-9.08,4.88-15.73,12.64-15.73c8.5,0,10.98,7.78,10.98,13.55
			c0,1.13-0.06,1.93-0.15,2.54H1094.41z M1108.12,90.61c0.06-4.12-1.61-8.6-6.46-8.6c-4.74,0-6.82,4.79-7.19,8.6H1108.12z"/>
		<path class="st3" d="M1150.11,107.25c-1.29,0.66-3.97,1.52-7.35,1.52c-8.12,0-13.48-5.77-13.48-14.97
			c0-8.86,5.6-15.54,14.53-15.54c2.68,0,5.17,0.69,6.43,1.38l-1.11,4.01c-1.1-0.58-2.85-1.23-5.37-1.23
			c-6.09,0-9.29,5.19-9.29,11.19c0,6.82,3.85,10.98,9.23,10.98c2.47,0,4.22-0.61,5.59-1.23L1150.11,107.25z"/>
		<path class="st3" d="M1170.56,108.21l-0.42-3.53h-0.16c-1.52,2.28-4.35,4.14-8.05,4.14c-5.33,0-8.37-3.94-8.37-8.42
			c0-7.18,6.18-10.88,16.11-10.85v-0.71c0-2.86-0.77-6.77-6.09-6.75c-2.45,0-4.95,0.75-6.81,1.99l-1.15-3.47
			c2.07-1.36,5.37-2.38,8.84-2.38c8.05,0,10.33,5.45,10.33,11.55v11.51c0,2.42,0.09,4.93,0.4,6.91H1170.56z M1169.77,93.16
			c-4.76-0.08-11.1,0.78-11.1,6.67c0,3.6,2.2,5.13,4.57,5.13c3.32,0,5.54-2.16,6.3-4.76c0.17-0.56,0.22-1.17,0.22-1.68V93.16z"/>
		<path class="st3" d="M1182.79,87.53c0-3.17-0.11-6.11-0.24-8.67h4.53l0.21,5.41h0.18c1.24-3.59,4.26-6.02,7.57-6.02
			c0.53,0,0.91,0.03,1.33,0.12v4.95c-0.46-0.09-0.93-0.12-1.56-0.12c-3.52,0-6.05,2.81-6.7,6.62c-0.13,0.76-0.2,1.64-0.2,2.55v15.86
			h-5.12V87.53z"/>
		<path class="st3" d="M1215.19,78.86l5.66,17.21c0.65,2.04,1.23,4.23,1.69,6.01h0.14c0.46-1.71,1.07-3.95,1.69-6.08l5.11-17.13
			h5.35l-7.06,20.29c-3.21,9.28-5.65,15.01-9.22,18.57c-2.46,2.39-4.94,3.43-6.17,3.74l-1.45-4.32c1.35-0.52,3.01-1.49,4.52-2.93
			c1.37-1.28,2.91-3.32,3.92-5.65c0.26-0.61,0.39-0.98,0.39-1.34c0-0.32-0.07-0.73-0.31-1.29l-9.8-27.08H1215.19z"/>
		<path class="st3" d="M1263.46,93.33c0,11.02-6.86,15.5-13.15,15.5c-7.15,0-12.74-5.5-12.74-15.12c0-10.09,5.96-15.46,13.16-15.46
			C1258.21,78.24,1263.46,84,1263.46,93.33z M1242.78,93.57c0,5.97,2.84,11.34,7.75,11.34c4.79,0,7.71-5.41,7.71-11.45
			c0-4.83-2-11.3-7.68-11.3C1244.93,82.16,1242.78,88.33,1242.78,93.57z"/>
		<path class="st3" d="M1292.21,100.19c0,3.13,0.12,5.74,0.24,8.02h-4.53l-0.29-4.28h-0.14c-1.22,2.08-4.06,4.9-8.69,4.9
			c-4.75,0-9.22-3-9.22-12.39V78.86h5.12v16.72c0,5.29,1.44,8.99,5.78,8.99c3.33,0,5.44-2.52,6.21-4.61
			c0.25-0.77,0.41-1.71,0.41-2.7v-18.4h5.12V100.19z"/>
		<path class="st3" d="M1336.31,93.33c0,11.02-6.86,15.5-13.15,15.5c-7.15,0-12.74-5.5-12.74-15.12c0-10.09,5.96-15.46,13.16-15.46
			C1331.05,78.24,1336.31,84,1336.31,93.33z M1315.63,93.57c0,5.97,2.84,11.34,7.75,11.34c4.79,0,7.71-5.41,7.71-11.45
			c0-4.83-2-11.3-7.68-11.3C1317.78,82.16,1315.63,88.33,1315.63,93.57z"/>
		<path class="st3" d="M1344.77,78.86l3.6,14.73c0.77,3.24,1.49,6.35,2.01,9.37h0.17c0.6-2.98,1.49-6.23,2.4-9.3l4.37-14.8h4.23
			l4.16,14.49c0.95,3.42,1.76,6.53,2.39,9.61h0.16c0.48-3.01,1.21-6.08,2.07-9.52l3.77-14.58h5.08l-8.85,29.35h-4.54l-4.14-14.08
			c-0.96-3.17-1.67-6-2.31-9.42h-0.12c-0.67,3.53-1.48,6.47-2.4,9.51l-4.35,13.99h-4.6l-8.35-29.35H1344.77z"/>
		<path class="st3" d="M1384.17,86.68c0-3.18-0.12-5.41-0.24-7.82h4.53l0.28,4.44h0.14c1.39-2.64,4.49-5.05,8.81-5.05
			c4.04,0,9.38,2.6,9.38,11.79v18.18h-5.12V90.69c0-4.37-1.45-8.2-5.97-8.2c-3.04,0-5.51,2.23-6.36,5.27
			c-0.2,0.67-0.33,1.6-0.33,2.52v17.93h-5.11V86.68z"/>
		<path class="st3" d="M1418.96,96.8l-0.15-1.36c-0.43-3.38,0.57-7.04,3.4-10.81c2.52-3.31,4.03-5.62,4.03-8.51
			c0-3.22-1.95-5.11-5.44-5.13c-1.96,0-4.12,0.61-5.5,1.65l-1.32-3.76c1.73-1.23,4.87-2.19,7.9-2.19c6.69,0,9.64,4.25,9.64,8.78
			c0,4.2-2.4,7.3-5.03,10.69c-2.43,3.21-3.32,5.85-3.05,9.24l0.08,1.4H1418.96z M1417.66,105.18c0-2.17,1.45-3.7,3.44-3.71
			c2.07,0,3.41,1.53,3.42,3.71c0,2.06-1.32,3.65-3.44,3.65C1419.05,108.83,1417.64,107.24,1417.66,105.18z"/>
		<path class="st3" d="M68.92,136.93h-8.67v-3.47h21.43v3.47h-8.71v28.89h-4.05V136.93z"/>
		<path class="st3" d="M85.08,131.99h4.04v13.89h0.1c0.64-1.08,1.59-2.04,2.71-2.7c1.11-0.67,2.44-1.07,3.95-1.07
			c3.08,0,7.29,2.03,7.29,9.4v14.3h-4.04v-13.85c0-3.48-1.18-6.48-4.7-6.48c-2.45,0-4.33,1.72-5.07,4.06
			c-0.18,0.56-0.24,1.22-0.24,1.93v14.33h-4.04V131.99z"/>
		<path class="st3" d="M112,154.83c0.07,6.13,3.44,8.23,7.21,8.23c2.6,0,4.29-0.49,5.66-1.09l0.7,2.91
			c-1.42,0.69-3.82,1.37-6.96,1.37c-6.66,0-10.53-4.69-10.53-11.7c0-7.18,3.86-12.44,10-12.44c6.73,0,8.68,6.15,8.68,10.71
			c0,0.89-0.04,1.52-0.12,2.01H112z M122.84,151.89c0.05-3.26-1.27-6.8-5.11-6.8c-3.75,0-5.4,3.78-5.68,6.8H122.84z"/>
		<path class="st3" d="M143.48,154.83c0.07,6.13,3.44,8.23,7.21,8.23c2.6,0,4.29-0.49,5.66-1.09l0.7,2.91
			c-1.42,0.69-3.82,1.37-6.96,1.37c-6.66,0-10.53-4.69-10.53-11.7c0-7.18,3.86-12.44,10-12.44c6.73,0,8.68,6.15,8.68,10.71
			c0,0.89-0.04,1.52-0.12,2.01H143.48z M154.32,151.89c0.05-3.26-1.27-6.8-5.11-6.8c-3.75,0-5.4,3.78-5.68,6.8H154.32z"/>
		<path class="st3" d="M174.89,165.81l-0.34-2.79h-0.13c-1.2,1.81-3.44,3.27-6.37,3.27c-4.21,0-6.62-3.12-6.62-6.65
			c0-5.68,4.88-8.61,12.74-8.58v-0.56c0-2.26-0.61-5.35-4.82-5.34c-1.94,0-3.92,0.59-5.39,1.57l-0.91-2.74
			c1.64-1.08,4.25-1.88,6.99-1.88c6.36,0,8.17,4.31,8.17,9.13v9.1c0,1.91,0.07,3.9,0.32,5.47H174.89z M174.27,153.91
			c-3.77-0.06-8.77,0.62-8.77,5.28c0,2.85,1.74,4.06,3.62,4.06c2.62,0,4.38-1.71,4.99-3.76c0.13-0.45,0.17-0.92,0.17-1.33V153.91z"
			/>
		<path class="st3" d="M184.57,149.46c0-2.51-0.09-4.83-0.19-6.86h3.58l0.17,4.28h0.14c0.98-2.84,3.37-4.76,5.98-4.76
			c0.42,0,0.72,0.02,1.06,0.1v3.91c-0.37-0.07-0.74-0.09-1.23-0.09c-2.79,0-4.78,2.22-5.3,5.23c-0.1,0.6-0.16,1.3-0.16,2.01v12.54
			h-4.04V149.46z"/>
		<path class="st3" d="M199.13,131.99h4.04v33.82h-4.04V131.99z"/>
		<path class="st3" d="M211.43,142.6l4.47,13.61c0.51,1.62,0.98,3.35,1.33,4.75h0.11c0.36-1.35,0.84-3.12,1.33-4.81l4.04-13.55h4.23
			l-5.58,16.05c-2.54,7.34-4.47,11.87-7.3,14.69c-1.95,1.89-3.91,2.71-4.88,2.95l-1.15-3.41c1.07-0.41,2.38-1.18,3.58-2.32
			c1.08-1.01,2.3-2.63,3.1-4.47c0.21-0.48,0.31-0.78,0.31-1.06c0-0.25-0.06-0.57-0.24-1.02l-7.75-21.41H211.43z"/>
		<path class="st3" d="M251.79,165.81l-0.34-2.79h-0.13c-1.2,1.81-3.44,3.27-6.37,3.27c-4.21,0-6.62-3.12-6.62-6.65
			c0-5.68,4.88-8.61,12.74-8.58v-0.56c0-2.26-0.61-5.35-4.82-5.34c-1.94,0-3.92,0.59-5.39,1.57l-0.91-2.74
			c1.64-1.08,4.25-1.88,6.99-1.88c6.36,0,8.17,4.31,8.17,9.13v9.1c0,1.91,0.07,3.9,0.32,5.47H251.79z M251.16,153.91
			c-3.77-0.06-8.77,0.62-8.77,5.28c0,2.85,1.74,4.06,3.62,4.06c2.62,0,4.38-1.71,4.99-3.76c0.13-0.45,0.17-0.92,0.17-1.33V153.91z"
			/>
		<path class="st3" d="M279.7,131.99v27.97c0,1.91,0.09,4.33,0.19,5.86h-3.58l-0.22-3.68h-0.13c-1.13,2.31-3.58,4.17-6.97,4.17
			c-5.12,0-9-4.6-9-11.83c-0.03-7.9,4.38-12.36,9.4-12.36c3.01,0,5.17,1.4,6.18,3.29h0.1v-13.41H279.7z M275.66,151.85
			c0-0.53-0.04-1.19-0.14-1.72c-0.52-2.59-2.55-4.76-5.31-4.76c-3.98,0-6.13,3.97-6.13,8.93c0,4.77,2.02,8.69,6.01,8.69
			c2.32,0,4.59-1.52,5.39-4.73c0.14-0.52,0.19-1.1,0.19-1.73V151.85z"/>
		<path class="st3" d="M305.14,154.04c0,8.71-5.43,12.26-10.4,12.26c-5.66,0-10.08-4.35-10.08-11.96c0-7.98,4.71-12.22,10.41-12.22
			C300.98,142.11,305.14,146.67,305.14,154.04z M288.78,154.23c0,4.72,2.25,8.96,6.13,8.96c3.79,0,6.1-4.28,6.1-9.05
			c0-3.82-1.58-8.93-6.08-8.93C290.48,145.21,288.78,150.08,288.78,154.23z"/>
		<path class="st3" d="M310.08,150.06c0-3.14-0.09-5.44-0.19-7.46h3.63l0.22,3.65h0.1c1.56-2.73,4.06-4.14,7.24-4.14
			c5.15,0,8.91,4.6,8.91,11.82c0,8.44-4.65,12.36-9.55,12.36c-2.83,0-5.07-1.36-6.23-3.37h-0.1v12.3h-4.04V150.06z M314.12,156.64
			c0,0.62,0.06,1.23,0.18,1.78c0.75,3.06,3.03,4.64,5.44,4.64c4.05,0,6.16-3.83,6.16-8.96c0-4.69-2.05-8.69-6.06-8.69
			c-2.52,0-4.86,2.05-5.49,4.91c-0.13,0.55-0.23,1.16-0.23,1.73V156.64z"/>
		<path class="st3" d="M339.87,136.06v6.53h5.58v3.08h-5.58v12.9c0,2.93,0.91,4.31,2.96,4.31c0.94,0,1.65-0.11,2.16-0.26l0.19,3.1
			c-0.77,0.3-1.95,0.52-3.46,0.52c-1.8,0-3.31-0.57-4.28-1.67c-1.1-1.21-1.56-3.11-1.56-5.99v-12.92h-3.37v-3.08h3.37v-5.45
			L339.87,136.06z"/>
		<path class="st3" d="M352.18,154.83c0.07,6.13,3.44,8.23,7.21,8.23c2.6,0,4.29-0.49,5.66-1.09l0.7,2.91
			c-1.42,0.69-3.82,1.37-6.96,1.37c-6.66,0-10.53-4.69-10.53-11.7c0-7.18,3.86-12.44,10-12.44c6.73,0,8.68,6.15,8.68,10.71
			c0,0.89-0.04,1.52-0.12,2.01H352.18z M363.02,151.89c0.05-3.26-1.27-6.8-5.11-6.8c-3.75,0-5.4,3.78-5.68,6.8H363.02z"/>
		<path class="st3" d="M371.81,149.46c0-2.51-0.09-4.83-0.19-6.86h3.58l0.17,4.28h0.14c0.98-2.84,3.37-4.76,5.98-4.76
			c0.42,0,0.72,0.02,1.06,0.1v3.91c-0.37-0.07-0.74-0.09-1.23-0.09c-2.79,0-4.78,2.22-5.3,5.23c-0.1,0.6-0.16,1.3-0.16,2.01v12.54
			h-4.04V149.46z"/>
		<path class="st3" d="M385.76,161.65c1.14,0.72,3.12,1.52,5.04,1.52c2.79,0,4.19-1.45,4.19-3.43c0-1.95-1.06-3.06-3.91-4.34
			c-3.85-1.65-5.74-3.85-5.73-6.59c0-3.75,2.97-6.69,7.55-6.69c2.2,0,4.03,0.63,5.22,1.36l-1.03,2.99
			c-0.89-0.58-2.38-1.27-4.26-1.27c-2.34,0-3.59,1.44-3.59,3.12c0,1.81,1.13,2.68,3.95,3.97c3.61,1.56,5.7,3.61,5.71,7.01
			c0,4.28-3.19,6.97-8.18,6.97c-2.29,0-4.5-0.62-5.94-1.54L385.76,161.65z"/>
	</g>
</g>
<line class="st4" x1="1742.58" y1="105" x2="1742.58" y2="638.31"/>
<line class="st5" x1="2163.4" y1="841.03" x2="1584.39" y2="841.03"/>
<line class="st5" x1="1584.02" y1="841.38" x2="1583.93" y2="386.51"/>
<line class="st6" x1="1656.37" y1="825.27" x2="1656.37" y2="857.57"/>
<line class="st6" x1="1729.25" y1="825.27" x2="1729.25" y2="857.57"/>
<line class="st6" x1="1797.64" y1="826.04" x2="1797.64" y2="858.34"/>
<line class="st6" x1="1869.62" y1="826.04" x2="1869.62" y2="858.34"/>
<line class="st6" x1="1938.9" y1="825.27" x2="1938.9" y2="857.57"/>
<line class="st6" x1="2011.78" y1="825.27" x2="2011.78" y2="857.57"/>
<line class="st6" x1="2087.37" y1="825.27" x2="2087.37" y2="857.57"/>
<line class="st6" x1="1564.59" y1="796.04" x2="1602.38" y2="796.04"/>
<line class="st6" x1="1564.59" y1="733.75" x2="1602.38" y2="733.75"/>
<line class="st6" x1="1565.49" y1="675.3" x2="1603.28" y2="675.3"/>
<line class="st6" x1="1565.49" y1="613" x2="1603.28" y2="613"/>
<line class="st6" x1="1564.59" y1="554.55" x2="1602.38" y2="554.55"/>
<line class="st6" x1="1564.59" y1="492.25" x2="1602.38" y2="492.25"/>
<line class="st6" x1="1564.59" y1="427.65" x2="1602.38" y2="427.65"/>
<text transform="matrix(1.1699 0 0 1 1645.4521 874.2852)" class="st7 st8 st9">10</text>
<text transform="matrix(1.1699 0 0 1 1718.3076 874.5225)" class="st7 st8 st9">20</text>
<text transform="matrix(1.1699 0 0 1 1786.6895 874.5225)" class="st7 st8 st9">30</text>
<text transform="matrix(1.1699 0 0 1 1859.5732 874.5225)" class="st7 st8 st9">40</text>
<text transform="matrix(1.1699 0 0 1 1927.9561 874.5225)" class="st7 st8 st9">50</text>
<text transform="matrix(1.1699 0 0 1 2001.7383 874.5225)" class="st7 st8 st9">60</text>
<text transform="matrix(1.1699 0 0 1 2077.3193 874.5225)" class="st7 st8 st9">70</text>
<g>
	<g>
		<path class="st3" d="M1555.03,801.19h0.82v4.27h-0.82V801.19z"/>
		<path class="st3" d="M1559.62,799.79c0.24-0.31,0.6-0.92,0.6-1.7c0-1.29-1.17-2.23-3.26-2.23c-2.01,0-3.32,0.96-3.32,2.53v0.33
			h-0.76v-0.3c0-0.83-0.95-2.25-2.92-2.25c-1.66,0-2.48,0.7-2.48,1.7c0,0.63,0.41,1.14,0.73,1.5l-0.71,0.3
			c-0.43-0.41-0.84-1.11-0.84-1.96c0-1.44,1.32-2.34,3.13-2.34c1.4,0,2.7,0.61,3.37,1.83h0.04c0.28-1.02,1.34-2.14,3.76-2.14
			c2.35,0,4.08,1.18,4.08,3.08c0,0.66-0.26,1.5-0.67,1.96L1559.62,799.79z"/>
	</g>
</g>
<g>
	<g>
		<path class="st3" d="M1555.3,738.92h0.82v4.27h-0.82V738.92z"/>
		<path class="st3" d="M1561.15,737.68h-0.56l-1.51-0.89c-2.33-1.37-5.4-3.3-8.42-3.3c-1.81,0-2.87,0.61-2.87,1.81
			c0,0.94,0.62,1.48,0.82,1.7l-0.67,0.29c-0.39-0.33-0.99-1.05-0.99-2.14c0-1.61,1.51-2.47,3.69-2.47c2.63,0,5.48,1.51,8.16,3.06
			l1.47,0.85h0.04v-4.19h0.84V737.68z"/>
	</g>
</g>
<g>
	<g>
		<path class="st3" d="M1555.3,680.47h0.82v4.27h-0.82V680.47z"/>
		<path class="st3" d="M1548.2,676.33v0.04l1.42,1.98l-0.73,0.2l-1.77-2.4v-0.59h14.03v0.78H1548.2z"/>
	</g>
</g>
<g>
	<g>
		<path class="st3" d="M1554.14,611.16c5.16,0,7.19,1.27,7.19,2.9c0,1.4-2.03,2.68-7.19,2.68s-7.19-1.27-7.19-2.9
			C1546.95,612.43,1548.98,611.16,1554.14,611.16z M1554.14,615.92c3.45,0,6.37-0.59,6.37-1.99c0-1.37-2.92-1.96-6.37-1.96
			c-3.46,0-6.37,0.59-6.37,1.98S1550.68,615.92,1554.14,615.92z"/>
	</g>
</g>
<g>
	<g>
		<path class="st3" d="M1548.2,558.1v0.04l1.42,1.98l-0.73,0.2l-1.77-2.4v-0.59h14.03v0.78H1548.2z"/>
	</g>
</g>
<g>
	<g>
		<path class="st3" d="M1561.15,497.93h-0.56l-1.51-0.89c-2.33-1.37-5.4-3.3-8.42-3.3c-1.81,0-2.87,0.61-2.87,1.81
			c0,0.94,0.62,1.48,0.82,1.7l-0.67,0.29c-0.39-0.33-0.99-1.05-0.99-2.14c0-1.61,1.51-2.47,3.69-2.47c2.63,0,5.48,1.51,8.16,3.06
			l1.47,0.85h0.04v-4.19h0.84V497.93z"/>
	</g>
</g>
<g>
	<g>
		<path class="st3" d="M1559.9,433.16c0.24-0.31,0.61-0.92,0.61-1.7c0-1.29-1.17-2.23-3.26-2.23c-2.01,0-3.33,0.96-3.33,2.53v0.33
			h-0.76v-0.3c0-0.83-0.95-2.25-2.91-2.25c-1.66,0-2.48,0.7-2.48,1.7c0,0.63,0.41,1.14,0.73,1.5l-0.71,0.3
			c-0.43-0.41-0.84-1.11-0.84-1.96c0-1.44,1.32-2.34,3.13-2.34c1.4,0,2.7,0.61,3.37,1.83h0.04c0.28-1.02,1.34-2.14,3.76-2.14
			c2.35,0,4.08,1.18,4.08,3.08c0,0.66-0.26,1.5-0.67,1.96L1559.9,433.16z"/>
	</g>
</g>
<text transform="matrix(1.1699 0 0 1 1591.4365 385.7007)" class="st10 st8 st9">sustainability index</text>
<text transform="matrix(1.1699 0 0 1 2147.585 870.6748)" class="st10 st8 st9">age</text>
<ellipse class="st11" cx="1776.94" cy="505.33" rx="4.5" ry="3.85"/>
<text transform="matrix(1.1699 0 0 1 1764.3643 320.9692)" class="st10 st8 st12">Car battery</text>
<rect x="1869.62" y="297.36" class="st13" width="122.37" height="35.38"/>
<text transform="matrix(1.1699 0 0 1 1910.2705 320.9683)" class="st10 st8 st14">ALL</text>
<ellipse class="st11" cx="1792.24" cy="536.09" rx="4.5" ry="3.85"/>
<ellipse class="st11" cx="1760.74" cy="509.17" rx="4.5" ry="3.85"/>
<ellipse class="st11" cx="1863.32" cy="589.93" rx="4.5" ry="3.85"/>
<ellipse class="st11" cx="1846.22" cy="556.09" rx="4.5" ry="3.85"/>
<ellipse class="st11" cx="1745.45" cy="606.85" rx="4.5" ry="3.85"/>
<ellipse class="st11" cx="1808.43" cy="566.09" rx="4.5" ry="3.85"/>
<ellipse class="st11" cx="1733.75" cy="479.95" rx="4.5" ry="3.85"/>
<ellipse class="st11" cx="1749.95" cy="566.09" rx="4.5" ry="3.85"/>
<ellipse class="st11" cx="2036.08" cy="696.06" rx="4.5" ry="3.85"/>
<ellipse class="st11" cx="2063.97" cy="667.6" rx="4.5" ry="3.85"/>
<ellipse class="st11" cx="2059.47" cy="642.23" rx="4.5" ry="3.85"/>
<ellipse class="st11" cx="2040.58" cy="675.3" rx="4.5" ry="3.85"/>
<ellipse class="st11" cx="1953.3" cy="692.22" rx="4.5" ry="3.85"/>
<ellipse class="st11" cx="1959.6" cy="605.31" rx="4.5" ry="3.85"/>
<ellipse class="st11" cx="2023.48" cy="646.07" rx="4.5" ry="3.85"/>
<ellipse class="st11" cx="1978.49" cy="649.92" rx="4.5" ry="3.85"/>
<ellipse class="st11" cx="1881.32" cy="688.37" rx="4.5" ry="3.85"/>
<ellipse class="st11" cx="1924.51" cy="623" rx="4.5" ry="3.85"/>
<ellipse class="st11" cx="1894.81" cy="642.23" rx="4.5" ry="3.85"/>
<ellipse class="st11" cx="1898.92" cy="605.61" rx="4.5" ry="3.85"/>
<ellipse class="st11" cx="2083.77" cy="750.67" rx="4.5" ry="3.85"/>
<ellipse class="st11" cx="1778.74" cy="675.3" rx="4.5" ry="3.85"/>
<ellipse class="st11" cx="1778.74" cy="696.06" rx="4.5" ry="3.85"/>
<ellipse class="st11" cx="1769.74" cy="713.75" rx="4.5" ry="3.85"/>
<ellipse class="st11" cx="1754.45" cy="703.75" rx="4.5" ry="3.85"/>
<ellipse class="st11" cx="2083.77" cy="713.75" rx="4.5" ry="3.85"/>
<ellipse class="st11" cx="2063.97" cy="742.98" rx="4.5" ry="3.85"/>
<ellipse class="st11" cx="2068.47" cy="761.43" rx="4.5" ry="3.85"/>
<ellipse class="st11" cx="2036.08" cy="742.98" rx="4.5" ry="3.85"/>
<ellipse class="st11" cx="1733.75" cy="733.75" rx="4.5" ry="3.85"/>
<ellipse class="st11" cx="1808.43" cy="603" rx="4.5" ry="3.85"/>
<ellipse class="st11" cx="1778.74" cy="588.39" rx="4.5" ry="3.85"/>
<ellipse class="st11" cx="1774.24" cy="566.09" rx="4.5" ry="3.85"/>
<ellipse class="st15" cx="1765.24" cy="638.38" rx="4.5" ry="3.85"/>
<ellipse class="st11" cx="2040.58" cy="630.69" rx="4.5" ry="3.85"/>
<ellipse class="st11" cx="2014.99" cy="667.9" rx="4.5" ry="3.85"/>
<ellipse class="st11" cx="1996.49" cy="619.15" rx="4.5" ry="3.85"/>
<ellipse class="st11" cx="1949.7" cy="634.53" rx="4.5" ry="3.85"/>
<ellipse class="st11" cx="1939.41" cy="581.77" rx="4.5" ry="3.85"/>
<ellipse class="st15" cx="2014.09" cy="597.92" rx="4.5" ry="3.85"/>
<ellipse class="st15" cx="2014.09" cy="597.92" rx="4.5" ry="3.85"/>
<ellipse class="st15" cx="2014.09" cy="597.92" rx="4.5" ry="3.85"/>
<ellipse class="st15" cx="2014.09" cy="597.92" rx="4.5" ry="3.85"/>
<ellipse class="st15" cx="2014.09" cy="597.92" rx="4.5" ry="3.85"/>
<ellipse class="st15" cx="2014.09" cy="597.92" rx="4.5" ry="3.85"/>
<ellipse class="st15" cx="2014.09" cy="597.92" rx="4.5" ry="3.85"/>
<ellipse class="st15" cx="2014.09" cy="597.92" rx="4.5" ry="3.85"/>
<ellipse class="st15" cx="2014.09" cy="597.92" rx="4.5" ry="3.85"/>
<ellipse class="st15" cx="2014.09" cy="597.92" rx="4.5" ry="3.85"/>
<ellipse class="st15" cx="2014.09" cy="597.92" rx="4.5" ry="3.85"/>
<ellipse class="st15" cx="2014.09" cy="597.92" rx="4.5" ry="3.85"/>
<ellipse class="st15" cx="2014.09" cy="597.92" rx="4.5" ry="3.85"/>
<rect x="2176.09" y="539.62" transform="matrix(-1.836970e-16 1 -1 -1.836970e-16 2747.5586 -1626.9233)" class="st15" width="22.3" height="41.39"/>
<ellipse class="st15" cx="2014.09" cy="597.92" rx="4.5" ry="3.85"/>
<ellipse class="st15" cx="2014.09" cy="597.92" rx="4.5" ry="3.85"/>
<ellipse class="st15" cx="2014.09" cy="597.92" rx="4.5" ry="3.85"/>
<ellipse class="st15" cx="2014.09" cy="597.92" rx="4.5" ry="3.85"/>
<ellipse class="st15" cx="2014.09" cy="597.92" rx="4.5" ry="3.85"/>
<ellipse class="st15" cx="2014.09" cy="597.92" rx="4.5" ry="3.85"/>
<ellipse class="st15" cx="1812.93" cy="642.23" rx="4.5" ry="3.85"/>
<ellipse class="st15" cx="1826.43" cy="623" rx="4.5" ry="3.85"/>
<ellipse class="st15" cx="1858.82" cy="626.84" rx="4.5" ry="3.85"/>
<ellipse class="st15" cx="1881.32" cy="613.77" rx="4.5" ry="3.85"/>
<ellipse class="st15" cx="1881.32" cy="573.78" rx="4.5" ry="3.85"/>
<ellipse class="st15" cx="1930.8" cy="596.08" rx="4.5" ry="3.85"/>
<ellipse class="st15" cx="1910.11" cy="585.31" rx="4.5" ry="3.85"/>
<ellipse class="st15" cx="1910.11" cy="569.93" rx="4.5" ry="3.85"/>
<ellipse class="st15" cx="1982.99" cy="566.09" rx="4.5" ry="3.85"/>
<ellipse class="st15" cx="1987.49" cy="526.86" rx="4.5" ry="3.85"/>
<ellipse class="st15" cx="2032.48" cy="523.02" rx="4.5" ry="3.85"/>
<ellipse class="st15" cx="2059.47" cy="526.86" rx="4.5" ry="3.85"/>
<ellipse class="st15" cx="2027.98" cy="491.48" rx="4.5" ry="3.85"/>
<ellipse class="st15" cx="2072.97" cy="503.02" rx="4.5" ry="3.85"/>
<ellipse class="st15" cx="2068.47" cy="477.64" rx="4.5" ry="3.85"/>
<rect x="2166.55" y="592.23" class="st11" width="41.39" height="20"/>
<rect x="2176.09" y="623.45" transform="matrix(-1.836970e-16 1 -1 -1.836970e-16 2831.3889 -1543.0931)" class="st16" width="22.3" height="41.39"/>
<rect x="2176.09" y="666.52" transform="matrix(-1.836970e-16 1 -1 -1.836970e-16 2874.4575 -1500.0244)" class="st17" width="22.3" height="41.39"/>
<text transform="matrix(1.1699 0 0 1 2219.6543 565.8633)" class="st10 st8 st9">BEV</text>
<text transform="matrix(1.1699 0 0 1 2219.6543 608.9326)" class="st10 st8 st9">PHEV</text>
<text transform="matrix(1.1699 0 0 1 2219.6543 650.4619)" class="st10 st8 st9">HEVs</text>
<text transform="matrix(1.1699 0 0 1 2219.6543 693.5312)" class="st10 st8 st9">CNGs</text>
<ellipse class="st16" cx="1835.43" cy="532.25" rx="4.5" ry="3.85"/>
<ellipse class="st16" cx="1765.24" cy="655.3" rx="4.5" ry="3.85"/>
<ellipse class="st16" cx="1758.95" cy="623" rx="4.5" ry="3.85"/>
<ellipse class="st16" cx="1745.45" cy="644.53" rx="4.5" ry="3.85"/>
<ellipse class="st16" cx="1733.75" cy="664.53" rx="4.5" ry="3.85"/>
<ellipse class="st16" cx="1719.35" cy="681.45" rx="4.5" ry="3.85"/>
<ellipse class="st16" cx="1719.35" cy="655.3" rx="4.5" ry="3.85"/>
<ellipse class="st16" cx="1685.16" cy="671.45" rx="4.5" ry="3.85"/>
<ellipse class="st16" cx="2045.98" cy="537.63" rx="4.5" ry="3.85"/>
<ellipse class="st16" cx="1982.99" cy="495.33" rx="4.5" ry="3.85"/>
<ellipse class="st16" cx="2087.37" cy="520.71" rx="4.5" ry="3.85"/>
<ellipse class="st16" cx="2079.27" cy="490.72" rx="4.5" ry="3.85"/>
<ellipse class="st16" cx="2050.47" cy="489.95" rx="4.5" ry="3.85"/>
<ellipse class="st16" cx="2050.47" cy="509.17" rx="4.5" ry="3.85"/>
<ellipse class="st16" cx="2000.99" cy="569.93" rx="4.5" ry="3.85"/>
<ellipse class="st16" cx="2000.99" cy="483.02" rx="4.5" ry="3.85"/>
<ellipse class="st16" cx="1954.2" cy="516.86" rx="4.5" ry="3.85"/>
<ellipse class="st16" cx="1841.73" cy="606.85" rx="4.5" ry="3.85"/>
<ellipse class="st16" cx="1812.93" cy="589.93" rx="4.5" ry="3.85"/>
<ellipse class="st16" cx="1850.72" cy="571.47" rx="4.5" ry="3.85"/>
<ellipse class="st16" cx="1955.1" cy="549.17" rx="4.5" ry="3.85"/>
<ellipse class="st16" cx="2014.48" cy="536.86" rx="4.5" ry="3.85"/>
<ellipse class="st16" cx="1797.64" cy="623" rx="4.5" ry="3.85"/>
<ellipse class="st17" cx="2042.23" cy="720.39" rx="4.5" ry="3.85"/>
<ellipse class="st17" cx="2041.33" cy="595.8" rx="4.5" ry="3.85"/>
<ellipse class="st17" cx="2041.33" cy="595.8" rx="4.5" ry="3.85"/>
<ellipse class="st17" cx="2041.33" cy="595.8" rx="4.5" ry="3.85"/>
<ellipse class="st17" cx="2041.33" cy="595.8" rx="4.5" ry="3.85"/>
<ellipse class="st17" cx="2041.33" cy="595.8" rx="4.5" ry="3.85"/>
<ellipse class="st17" cx="2041.33" cy="595.8" rx="4.5" ry="3.85"/>
<ellipse class="st17" cx="2041.33" cy="595.8" rx="4.5" ry="3.85"/>
<ellipse class="st17" cx="2041.33" cy="595.8" rx="4.5" ry="3.85"/>
<ellipse class="st17" cx="2041.33" cy="595.8" rx="4.5" ry="3.85"/>
<ellipse class="st17" cx="1733.75" cy="446.88" rx="4.5" ry="3.85"/>
<ellipse class="st17" cx="1774.24" cy="551.47" rx="4.5" ry="3.85"/>
<ellipse class="st17" cx="1820.13" cy="543.78" rx="4.5" ry="3.85"/>
<ellipse class="st17" cx="1749.95" cy="584.54" rx="4.5" ry="3.85"/>
<ellipse class="st17" cx="1818.33" cy="526.09" rx="4.5" ry="3.85"/>
<ellipse class="st17" cx="1838.13" cy="581.47" rx="4.5" ry="3.85"/>
<ellipse class="st17" cx="1795.84" cy="509.94" rx="4.5" ry="3.85"/>
<ellipse class="st17" cx="1746.35" cy="528.4" rx="4.5" ry="3.85"/>
<ellipse class="st17" cx="1719.35" cy="429.19" rx="4.5" ry="3.85"/>
<ellipse class="st17" cx="1754.45" cy="482.26" rx="4.5" ry="3.85"/>
<ellipse class="st17" cx="1749.95" cy="450.72" rx="4.5" ry="3.85"/>
<ellipse class="st17" cx="1723.85" cy="450.72" rx="4.5" ry="3.85"/>
<ellipse class="st17" cx="1694.16" cy="454.57" rx="4.5" ry="3.85"/>
<ellipse class="st17" cx="1960.5" cy="651.45" rx="4.5" ry="3.85"/>
<ellipse class="st17" cx="2079.27" cy="696.06" rx="4.5" ry="3.85"/>
<ellipse class="st17" cx="2059.47" cy="709.9" rx="4.5" ry="3.85"/>
<ellipse class="st17" cx="2010.88" cy="703.75" rx="4.5" ry="3.85"/>
<ellipse class="st17" cx="2063.97" cy="689.91" rx="4.5" ry="3.85"/>
<ellipse class="st17" cx="2018.98" cy="689.91" rx="4.5" ry="3.85"/>
<ellipse class="st17" cx="1930.8" cy="688.37" rx="4.5" ry="3.85"/>
<ellipse class="st17" cx="1930.8" cy="640.69" rx="4.5" ry="3.85"/>
<ellipse class="st17" cx="1996.49" cy="642.23" rx="4.5" ry="3.85"/>
<ellipse class="st17" cx="1973.99" cy="630.69" rx="4.5" ry="3.85"/>
<ellipse class="st17" cx="1960.5" cy="626.84" rx="4.5" ry="3.85"/>
<ellipse class="st17" cx="1813.83" cy="505.33" rx="4.5" ry="3.85"/>
<ellipse class="st17" cx="1821.93" cy="553.78" rx="4.5" ry="3.85"/>
<ellipse class="st17" cx="1778.74" cy="486.1" rx="4.5" ry="3.85"/>
<ellipse class="st17" cx="1738.25" cy="436.88" rx="4.5" ry="3.85"/>
<ellipse class="st17" cx="1698.66" cy="436.88" rx="4.5" ry="3.85"/>
<ellipse class="st17" cx="1719.35" cy="479.95" rx="4.5" ry="3.85"/>
<ellipse class="st17" cx="1786.84" cy="549.93" rx="4.5" ry="3.85"/>
<ellipse class="st17" cx="1756.25" cy="542.24" rx="4.5" ry="3.85"/>
<path class="st18" d="M1109.03,471.99l-30.38,61.82l0.67,3.1c29.86,14.25,50.5,44.72,50.5,80.02c0,20.72-7.13,39.76-19.05,54.86
	l68.12,26.66c14.16-23.87,22.3-51.74,22.3-81.51C1201.19,552.82,1163.48,497.52,1109.03,471.99z"/>
<path class="st4" d="M988.29,558.81l48.08-12.7l-6.75-88.75c-30.98,2.22-59.52,13.25-83.12,30.61v0L988.29,558.81L988.29,558.81z"/>
<path class="st4" d="M995.11,570.38l-6.82-11.57h0l-41.79-70.84c-30.76,22.63-53.14,56-61.59,94.58l88.9,30.38L995.11,570.38z"/>
<path class="st4" d="M988.29,632.08l6.82-11.87l-110.2-37.66c-2.43,11.08-3.72,22.58-3.72,34.38c0,18.21,3.06,35.69,8.66,52
	l66.91-32.9L988.29,632.08z"/>
<path class="st4" d="M1021.23,675.99l-64.45-39.96l-66.91,32.9c14.99,43.62,48.28,78.72,90.72,96.11c0.73,0.3,1.47,0.58,2.2,0.87
	l45.06-85.82L1021.23,675.99z"/>
<path class="st4" d="M1052.54,670.49l1.4-30.08h-25.31l-7.4,35.58l6.61,4.1l-45.06,85.82c18.1,7.1,37.8,11.02,58.41,11.02
	c1.61,0,3.22-0.04,4.82-0.09c0.53-0.02,1.04-0.05,1.57-0.07l3.79-81.16L1052.54,670.49z"/>
<path class="st4" d="M1047.58,776.77c14.39-0.57,28.29-3,41.46-7.12l-37.67-74.03L1047.58,776.77z"/>
<path class="st4" d="M1052.54,670.49l-1.17,25.12l37.67,74.03c17.61-5.52,33.9-13.99,48.31-24.84c0.26-0.19,0.51-0.39,0.76-0.59
	l-75.47-65.02L1052.54,670.49z"/>
<path class="st4" d="M1062.64,657.39v21.81l75.47,65.02c15.86-12.1,29.4-27.09,39.82-44.2c0.03-0.05,0.06-0.1,0.1-0.16l-80.33-29.57
	L1062.64,657.39z"/>
<path class="st4" d="M1097.69,670.29l80.33,29.57c0.29-0.47,0.59-0.94,0.87-1.41c6.75-11.38,12.12-23.68,15.9-36.65
	c0.05-0.16,0.09-0.33,0.13-0.49l-95.01,8.78L1097.69,670.29z"/>
<path class="st4" d="M1099.91,670.08l95.01-8.78c4.06-14.09,6.27-28.97,6.27-44.37c0-18.63-3.2-36.5-9.06-53.12l-76.5,31.87
	L1099.91,670.08z"/>
<path class="st4" d="M1109.03,569.65l12.15,22.09l70.66-28.78c-6.33-17.65-15.67-33.87-27.41-48.03l-53.14,52.49L1109.03,569.65z"/>
<path class="st4" d="M1074.28,544.88l28.7,30.73l6.04-5.97l2.26-2.23l53.14-52.49c-14.71-17.75-33.17-32.26-54.18-42.33l-5.79,11.36
	L1074.28,544.88z"/>
<polygon class="st4" points="1164.43,514.93 1164.43,514.93 1111.28,567.42 "/>
<path class="st4" d="M1121.18,591.73l-12.15-22.09l-6.04,5.97l-28.7-30.73l-6.9,13.93h-30.06l-0.97-12.7l-48.08,12.7l6.82,11.57
	l-21.3,42.56l-88.9-30.38l110.2,37.66l-6.82,11.87l-31.52,3.96l64.45,39.96l7.4-35.58h25.31l-1.4,30.08l10.1,8.71v-21.81l35.05,12.9
	l2.22-0.21l15.73-74.39l76.5-31.87c-0.1-0.29-0.2-0.57-0.3-0.86L1121.18,591.73z"/>
<path class="st4" d="M1110.25,472.59c-0.04-0.02-0.09-0.04-0.13-0.06l-5.66,11.42L1110.25,472.59z"/>
<polygon class="st19" points="1217.27,462.73 1164.43,514.93 1164.43,514.93 "/>
<path class="st19" d="M1021.26,347.38c-0.25,0.02-0.5,0.03-0.76,0.05l7.33,86.39L1021.26,347.38z"/>
<path class="st19" d="M1222.75,817.13c0.06-0.06,0.13-0.11,0.19-0.17l-17.89-15.08L1222.75,817.13z"/>
<path class="st19" d="M1282.69,738.38c0.16-0.31,0.32-0.61,0.47-0.92l-89.55-31.87L1282.69,738.38z"/>
<path class="st19" d="M1192.14,563.82l101.92-42.47c0-0.01,0-0.01-0.01-0.02l-102.21,41.63
	C1191.94,563.24,1192.04,563.53,1192.14,563.82z"/>
<path class="st18" d="M1164.43,514.93l52.85-52.2l25.8-25.48c-23.13-25.97-51.19-47.44-82.72-62.95l-50.1,98.3
	C1131.26,482.66,1149.72,497.18,1164.43,514.93z"/>
<path class="st18" d="M1164.43,514.93c11.74,14.16,21.08,30.38,27.41,48.03l102.21-41.63c-11.8-31.19-29.2-59.63-50.98-84.09
	l-25.8,25.48L1164.43,514.93z"/>
<path class="st18" d="M1294.06,521.35l-101.92,42.47c5.86,16.62,9.06,34.49,9.06,53.12c0,15.4-2.2,30.28-6.27,44.37l114.45-10.58
	c1.38-11.07,2.1-22.35,2.1-33.79C1311.47,583.28,1305.3,551.07,1294.06,521.35z"/>
<path class="st18" d="M1178.89,698.45c-0.28,0.48-0.58,0.94-0.87,1.41l15.59,5.74l89.55,31.87c13.25-26.55,22.27-55.57,26.15-86.2
	l-114.52,10.54C1191.01,674.76,1185.64,687.06,1178.89,698.45z"/>
<path class="st20" d="M1177.92,700.01c-10.42,17.11-23.96,32.1-39.82,44.2l66.94,57.67l17.89,15.08
	c24.42-22.2,44.76-48.82,59.76-78.58l-89.08-32.79L1177.92,700.01z"/>
<path class="st20" d="M1137.35,744.8c-14.4,10.86-30.7,19.33-48.31,24.84l35.78,70.32l14.66,28.81
	c30.93-12.09,59.1-29.7,83.27-51.64l-17.7-15.25L1137.35,744.8z"/>
<path class="st20" d="M1089.04,769.64c-13.16,4.12-27.07,6.56-41.46,7.12l-5.15,110.43c34.23-0.15,66.95-6.67,97.05-18.43
	l-14.66-28.81L1089.04,769.64z"/>
<path class="st20" d="M1041.19,776.93c-20.62,0-40.32-3.92-58.41-11.02l-51.45,98c33.57,14.96,70.74,23.3,109.87,23.3
	c0.11,0,0.22,0,0.34,0l4.48-110.37C1044.41,776.89,1042.81,776.93,1041.19,776.93z"/>
<path class="st21" d="M886.05,665.12c-5.6-16.3-8.66-33.79-8.66-52c0-11.8,1.29-23.31,3.72-34.38l-73.84-25.24l-30.93-10.57
	c-6,22.38-9.22,45.91-9.22,70.19c0,35.67,6.91,69.73,19.47,100.9l82.35-40.49L886.05,665.12z"/>
<polygon class="st22" points="790.38,717.84 790.38,717.84 872.73,677.35 "/>
<path class="st21" d="M881.1,578.74c8.45-38.58,30.83-71.95,61.59-94.58l-50.83-86.17l-5.37-9.11
	c-53.28,35.93-93.07,90.35-110.16,154.06l30.93,10.57L881.1,578.74z"/>
<path class="st21" d="M1023.58,429.81l-7.33-86.39c-48,3.64-92.48,19.81-130.21,45.26l5.37,9.11l50.83,86.17
	c23.6-17.36,52.14-28.39,83.12-30.61L1023.58,429.81z"/>
<path class="st21" d="M1026.01,453.53c3.76-0.26,7.55-0.41,11.37-0.41c24.25,0,47.24,5.41,67.83,15.06
	c0.37,0.17,0.73,0.36,1.09,0.53l48.95-98.85c-35.63-17.3-75.61-27.03-117.88-27.03c-6.7,0-13.35,0.25-19.93,0.73l6.57,86.44
	L1026.01,453.53z"/>
<path class="st4" d="M909.3,425.29l-19.49-32.02c-53.57,36.16-93.5,91-110.4,155.2l45.33,15.35L909.3,425.29z"/>
<path class="st4" d="M803.48,556.62l-24.08-8.13c-5.8,22.02-8.9,45.13-8.9,68.97c0,35.38,6.81,69.17,19.17,100.14l31.15-14.92
	L803.48,556.62z"/>
<path class="st4" d="M935.2,856.54l-4.26,7.93c33.57,14.95,70.73,23.27,109.85,23.27c0.54,0,1.08-0.02,1.62-0.02l0.42-9.27
	L935.2,856.54z"/>
<path class="st4" d="M1042.41,887.72c33.95-0.2,66.41-6.65,96.29-18.27l-3.47-6.57l-92.4,15.57L1042.41,887.72z"/>
<path class="st4" d="M1135.23,862.88l3.47,6.57c30.78-11.97,58.83-29.42,82.95-51.15l-0.42-0.37L1135.23,862.88z"/>
<path class="st4" d="M1282.37,738.75l-65.1,75.72l3.96,3.45l1.52-0.79l0.09,0.07C1247.16,795.02,1267.43,768.46,1282.37,738.75z"/>
<path class="st4" d="M1257.16,728.99l25.38,9.45c13.44-26.8,22.56-56.14,26.43-87.11l-14.91,1.34L1257.16,728.99z"/>
<path class="st4" d="M1294.06,652.66l14.91-1.34c1.39-11.09,2.11-22.39,2.11-33.86c0-33.85-6.24-66.24-17.62-96.1l-4.79,2.24
	L1294.06,652.66z"/>
<path class="st4" d="M1282.69,526.08l10.68-4.96c-4.13-10.81-8.92-21.29-14.35-31.38l-6.42,4.28L1282.69,526.08z"/>
<path class="st4" d="M1272.6,494.03l6.42-4.28c-5.61-10.43-11.87-20.45-18.75-30l-3.11,2.99L1272.6,494.03z"/>
<path class="st4" d="M1251.8,467.92l8.45-8.2c-5.57-7.74-11.53-15.18-17.88-22.27l-6.76,7.16L1251.8,467.92z"/>
<path class="st4" d="M1235.62,444.61l6.73-7.19c-5.86-6.55-12.02-12.82-18.48-18.77l-0.94,1.4L1235.62,444.61z"/>
<path class="st4" d="M1213.99,433.82l9.86-15.19c-11.3-10.41-23.49-19.87-36.44-28.25l-1.65,2.95L1213.99,433.82z"/>
<path class="st4" d="M1176.66,409.59l9.11-16.26l1.65-2.95c-8.93-5.78-18.22-11.04-27.83-15.75l-9.16,19.11L1176.66,409.59z"/>
<path class="st23" d="M1223.87,418.65l58.51-87.52c-0.37-0.31-0.74-0.63-1.11-0.94l-57.42,88.44
	C1223.86,418.64,1223.87,418.64,1223.87,418.65z"/>
<path class="st23" d="M1260.27,459.74l75.8-72.85c-0.12-0.15-0.23-0.3-0.34-0.45l-75.47,73.27
	C1260.26,459.73,1260.26,459.73,1260.27,459.74z"/>
<path class="st23" d="M1293.45,521.36l94.76-44.27c0-0.01-0.01-0.01-0.01-0.02l-94.84,44.06
	C1293.4,521.2,1293.42,521.28,1293.45,521.36z"/>
<path class="st23" d="M1282.62,738.46l-0.08-0.03c-0.05,0.11-0.11,0.21-0.17,0.32L1282.62,738.46z"/>
<path class="st23" d="M1380.01,776.55c0.24-0.52,0.5-1.04,0.74-1.56l-92.71-34.51L1380.01,776.55z"/>
<path class="st23" d="M930.68,864.35l-49.24,92.23c0.01,0.01,0.03,0.01,0.04,0.02l49.46-92.12
	C930.85,864.43,930.77,864.39,930.68,864.35z"/>
<path class="st23" d="M1159.59,374.64l45.11-94.15c-0.04-0.02-0.07-0.04-0.11-0.05l-45.95,93.73
	C1158.96,374.32,1159.27,374.48,1159.59,374.64z"/>
<path class="st21" d="M1036.98,343.37c42.25,0,82.23,9.7,117.85,26.99l45.95-93.73c-49.48-24.1-105.06-37.63-163.8-37.63
	c-10.05,0-20,0.41-29.85,1.18l9.44,103.95C1023.31,343.63,1030.12,343.37,1036.98,343.37z"/>
<path class="st18" d="M1238.49,299.18c-10.9-6.79-22.18-13.03-33.8-18.69l-45.11,94.15c9.61,4.71,18.9,9.97,27.83,15.75
	c12.95,8.38,25.14,17.84,36.44,28.25l57.42-88.44C1267.79,318.89,1253.5,308.52,1238.49,299.18z"/>
<path class="st18" d="M1242.35,437.42l71.55-76.39c-9.92-10.56-20.44-20.55-31.52-29.9l-58.51,87.52
	C1230.33,424.6,1236.49,430.87,1242.35,437.42z"/>
<path class="st24" d="M1242.38,437.45c-0.01-0.01-0.02-0.02-0.03-0.03l-6.73,7.19L1242.38,437.45z"/>
<path class="st24" d="M1242.38,437.45l71.87-76.06c-0.11-0.12-0.23-0.24-0.34-0.35l-71.55,76.39
	C1242.36,437.43,1242.37,437.44,1242.38,437.45z"/>
<g>
	<path class="st18" d="M1314.24,361.39l-71.87,76.06c6.34,7.09,12.3,14.53,17.88,22.27l75.47-73.27
		C1328.93,377.78,1321.77,369.41,1314.24,361.39z"/>
	<path class="st18" d="M1366.13,431.62c-8.96-15.65-19.02-30.6-30.07-44.73l-75.8,72.85c6.88,9.55,13.15,19.57,18.75,30
		c5.42,10.09,10.22,20.57,14.35,31.38l94.84-44.06C1381.85,461.36,1374.47,446.18,1366.13,431.62z"/>
</g>
<polygon class="st25" points="1282.69,738.38 1282.62,738.46 1288.04,740.48 "/>
<path class="st26" d="M1221.23,817.93l0.42,0.37c0.4-0.36,0.78-0.73,1.18-1.09l-0.09-0.07L1221.23,817.93z"/>
<g>
	<path class="st18" d="M1282.54,738.43l0.08,0.03l0.07-0.08l5.35,2.1l92.71,34.51c7.94-17.11,14.61-34.92,19.93-53.3l-102.4-21.91
		C1294.01,713.15,1288.74,726.06,1282.54,738.43z"/>
	<path class="st18" d="M1308.96,651.32c-2.08,16.68-5.7,32.88-10.69,48.47l102.4,21.91c7.41-25.61,12.18-52.35,13.95-79.9
		L1308.96,651.32z"/>
</g>
<path class="st20" d="M1479.36,1003.04"/>
<g>
	<path class="st20" d="M1042.41,887.72l-0.98,21.52l-3.76,82.83c1.04,0.01,2.08,0.04,3.12,0.04c22.24,0,44.01-1.96,65.18-5.68
		l-15.11-103.34C1075.14,886.03,1058.96,887.62,1042.41,887.72z"/>
	<path class="st20" d="M1171.38,931.24l-32.68-61.79c-15.32,5.96-31.32,10.55-47.85,13.64l15.11,103.34
		c28.49-5.01,55.88-13.22,81.77-24.28L1171.38,931.24z"/>
</g>
<g>
	<path class="st20" d="M930.94,864.47l-49.46,92.12c24.24,11.4,49.89,20.28,76.63,26.31l26.27-101.08
		C965.78,877.88,947.9,872.02,930.94,864.47z"/>
	<path class="st20" d="M1041.44,909.24l0.98-21.52c-0.54,0-1.08,0.02-1.62,0.02c-19.35,0-38.22-2.04-56.42-5.91L958.1,982.9
		c25.63,5.78,52.25,8.94,79.57,9.16L1041.44,909.24z"/>
</g>
<g>
	<path class="st4" d="M928.98,862.88c-16.99-7.76-33.03-17.25-47.91-28.21c-15.42-11.36-29.59-24.32-42.27-38.63
		c-11.94-13.48-22.54-28.16-31.63-43.84l-0.54,0.3c28.41,49.16,71.85,88.54,124.04,111.85l25.3-47.38l-1.82-1.83L928.98,862.88z"/>
	<path class="st27" d="M807.18,752.2c-6.37-10.99-12-22.46-16.79-34.36l45.2-22.22l0,0l-14.76,7.07l0.02,0.18l-31.12,14.86
		c4.81,12.04,10.48,23.66,16.9,34.77L807.18,752.2L807.18,752.2z"/>
	
		<rect x="859.05" y="710.74" transform="matrix(0.8774 -0.4798 0.4798 0.8774 -232.7364 510.8117)" class="st27" width="47.89" height="0"/>
	<polygon class="st27" points="861.99,722.22 861.99,722.22 824.75,742.59 	"/>
	<path class="st27" d="M889.86,668.93l-17.12,8.42l-37.15,18.26l-45.2,22.22c4.79,11.9,10.42,23.37,16.79,34.36l17.57-9.61
		l37.24-20.36L904,699.25C898.28,689.74,893.52,679.59,889.86,668.93z"/>
	<path class="st27" d="M904,699.25l-42.01,22.98l-37.24,20.36l-17.57,9.61c9.09,15.67,19.69,30.36,31.63,43.84l11.87-9.58
		l41.66-33.63l32.42-26.17C916.91,718.31,909.94,709.12,904,699.25z"/>
	<polygon class="st27" points="807.18,752.2 807.18,752.2 824.75,742.59 	"/>
	<path class="st27" d="M942.22,742.62l-24.07,36.22l-37.09,55.82c14.88,10.96,30.92,20.45,47.91,28.21l25.18-47.74l26.42-50.09
		C966.7,759.36,953.82,751.77,942.22,742.62z"/>
	<path class="st27" d="M924.77,726.65l-32.42,26.17l-41.66,33.63l-11.87,9.58c12.68,14.31,26.84,27.27,42.27,38.63l37.09-55.82
		l24.07-36.22C936.02,737.73,930.18,732.39,924.77,726.65z"/>
</g>
<polyline class="st28" points="753.95,582.55 1042.43,616.95 757.9,636.03 "/>
<polyline class="st28" points="790.38,507.91 1042.43,628.48 809.41,467.92 "/>
<polyline class="st28" points="916.41,370.35 1032.85,621.88 843.37,421.88 "/>
<line class="st28" x1="952.78" y1="356.75" x2="1032.85" y2="616.95"/>
<line class="st28" x1="988.67" y1="349.56" x2="1036.36" y2="616.23"/>
<path class="st21" d="M1007.11,240.19c-64.43,5.08-124.27,26.47-175.41,60.03l54.42,89.16c37.74-25.44,82.24-41.61,130.25-45.23
	L1007.11,240.19z"/>
<line class="st21" x1="1053.94" y1="343.9" x2="1036.36" y2="628.48"/>
<line class="st21" x1="1086.36" y1="349.56" x2="1036.36" y2="616.23"/>
<polyline class="st28" points="1123.11,356.75 1042.43,616.95 763.44,677.35 "/>
<g>
	<path class="st21" d="M952.57,616.93c0-48.94,39.68-88.62,88.62-88.62c13.65,0,26.57,3.09,38.12,8.6l-0.67-3.1l30.38-61.82
		c-20.6-9.66-43.58-15.06-67.83-15.06c-88.37,0-160,71.63-160,160c0,18.8,3.25,36.84,9.2,53.6l65.34-30.12
		C953.68,632.93,952.57,625.07,952.57,616.93z"/>
	<path class="st29" d="M1110.77,671.79c-0.17,0.21-0.34,0.42-0.51,0.63l51.75,19.42L1110.77,671.79z"/>
	<path class="st20" d="M1162.01,691.84l-51.75-19.42c-16.24,20.2-41.13,33.14-69.07,33.14c-8.35,0-16.42-1.17-24.08-3.33
		l-34.69,63.55c18.19,7.19,38.01,11.16,58.76,11.16c58.59,0,109.82-31.5,137.7-78.49L1162.01,691.84z"/>
	<path class="st27" d="M955.73,640.41l-65.34,30.12c15.32,43.09,48.59,77.68,90.82,94.77l33.94-63.64
		C986.31,692.8,963.74,669.62,955.73,640.41z"/>
	<path class="st20" d="M1015.15,701.66l-33.94,63.64c0.4,0.16,0.81,0.32,1.22,0.48l34.69-63.55
		C1016.46,702.04,1015.8,701.86,1015.15,701.66z"/>
</g>
<path class="st21" d="M766.7,613.65c0-23.84,3.1-46.95,8.9-68.97l-99.06-33.47c-9.24,32.56-14.2,66.92-14.2,102.44
	c0,51.53,10.41,100.63,29.23,145.31l94.31-45.17C773.51,682.82,766.7,649.03,766.7,613.65z"/>
<line class="st28" x1="664.53" y1="641.79" x2="776.33" y2="635.07"/>
<line class="st28" x1="923.29" y1="256.59" x2="953.8" y2="358.82"/>
<line class="st28" x1="1102.59" y1="244.74" x2="1084.14" y2="361.39"/>
<g>
	<ellipse class="st0" cx="1039.8" cy="615.54" rx="90.12" ry="87.82"/>
</g>
</svg>
